# xmcd
# Copyright (C) 1995-1998 Ti Kan
#
# Track frame offsets:
#       150
#       15146
#       31415
#       46794
#       64907
#       82872
#       100573
#       113794
#       132324
#       148399
#       164837
#
# Disc length: 2400 seconds
#
# Revision: 0
# Processed by: cddbd v1.5.1PL0 Copyright (c) Steve Scherf et al.
# Submitted via: CD-Transfer v1.0
#
DISCID=8a095e0b
DTITLE=Angelheart - Caution It Rocks
DYEAR=2005
DGENRE=
TTITLE0=Gonna Get You
TTITLE1=Into The Night
TTITLE2=Caged
TTITLE3=Died Inside
TTITLE4=I'll Try
TTITLE5=Maybe
TTITLE6=Wintersong
TTITLE7=I Feel You
TTITLE8=Desert Bloom
TTITLE9=If I Needed You
TTITLE10=Substitue
EXTD=
EXTT0=
EXTT1=
EXTT2=
EXTT3=
EXTT4=
EXTT5=
EXTT6=
EXTT7=
EXTT8=
EXTT9=
EXTT10=
PLAYORDER=
